<svg id="evjVIsFdx6Y1" xmlns="http://www.w3.org/2000/svg" xmlns:xlink="http://www.w3.org/1999/xlink" viewBox="0 0 385.994 292.974" shape-rendering="geometricPrecision" text-rendering="geometricPrecision">
<style><![CDATA[
#evjVIsFdx6Y4_tr {animation: evjVIsFdx6Y4_tr__tr 3000ms linear infinite normal forwards}@keyframes evjVIsFdx6Y4_tr__tr { 0% {transform: translate(199.320015px,107.724602px) rotate(0deg)} 100% {transform: translate(199.320015px,107.724602px) rotate(360deg)}} #evjVIsFdx6Y51_tr {animation: evjVIsFdx6Y51_tr__tr 3000ms linear infinite normal forwards}@keyframes evjVIsFdx6Y51_tr__tr { 0% {transform: translate(233.613441px,69.737005px) rotate(0deg)} 100% {transform: translate(233.613441px,69.737005px) rotate(-360deg)}} #evjVIsFdx6Y56_tr {animation: evjVIsFdx6Y56_tr__tr 3000ms linear infinite normal forwards}@keyframes evjVIsFdx6Y56_tr__tr { 0% {transform: translate(310.951003px,62.684px) rotate(0deg)} 100% {transform: translate(310.951003px,62.684px) rotate(1080deg)}} #evjVIsFdx6Y60 {animation: evjVIsFdx6Y60_c_o 3000ms linear infinite normal forwards}@keyframes evjVIsFdx6Y60_c_o { 0% {opacity: 1} 50% {opacity: 0.15} 100% {opacity: 1}} #evjVIsFdx6Y68_ts {animation: evjVIsFdx6Y68_ts__ts 3000ms linear infinite normal forwards}@keyframes evjVIsFdx6Y68_ts__ts { 0% {transform: translate(308.829987px,133.936005px) scale(1,1)} 50% {transform: translate(308.829987px,133.936005px) scale(0.9,0.9)} 100% {transform: translate(308.829987px,133.936005px) scale(1,1)}}
]]></style>
<path d="M145.99,126.805l-9.934-4.438-.564.419.063-.88-.101-.113-.023-.494.062-.069-.649-.017-2.228-1.005-2.365,1.998.345-.977-1.687-.838-1.886.648l2.079-3.893-1-2.037-.716-.751-3.81-.982-1.37.18-1.59-.913-1.137-2.112-2.004-.232.882-.812-1.452-.491-.476-.422-.15.171-.184-.507l1.103-.224-2.58.113.604.142-6.9-1.706.458.596-2.088.584.095-.021.52-1.231-4.855,2.16-1.236,2.37-5.36-1.301.121.196-2.025-3.275.403-2.985-.399-.608.19.154-1.09-.703.101.047-4.444-.131.599-3.143.191.623L90,96.292l-4.353,2.99.134-.075-4.666.144.15.086-.373-.175.16.049-2.106-3.544.368.834-.382-6.931l1.06-1.101.376-.04.437-.2-.238.164l1.821-1.217-.249.188l1.03-.684-.096.194l2.81.284.105.284l1.058-.253.834.64.236-.04-.431-.784.169-.401-1.08-.109l3.162-.294.263.063l1.148-.077-.352.008.907.131-.077.19l3.127,2.77.03.24.748.611l1.118,1.964-.215-.005l1.11-.681-.604-2.854.091-.204.161.711-1.05-3.803.681-1.46.166.062.012-.137.749-.35.753-.703.035.19l1.323-1.096.026.272.55-.94.955-.056-.59-.451.032-.447l1.381-.287-.072-.228-.984-.33.541.136-.045-.089.128.054.002-.162.35.201.304.354-1.83-1.828.526-.215.416-.031.066-.049-.859-.728.818.6.087-.211-.82-1.278.15.735.023-.121.562.373-.357-.645.302.298-.175-.857.244-.419.057.101.032-.144.034.073.274-.254-.013.1.104-.007-.139.123.136.043-.364.387.088-.074-.211.265-.012.245.362.133.037.381.116-.086-.081,1.478.917-1.482-.12-.277.12-1.723.128,1.28.949-1.292-.017.254.118-1.828-.018.626l2.768-1.315.258.063l1.015-.367-.907-.376l1.152-1.953-.009.087.176.02.014-.178.152-.108.102.015.847-.763.056.167-.108.134l4.457-2.101.339.146-.46.672l1.47-.054-.818.448-.333-.412-1.365.836.241-.083-.686.422.296-.173.558,1.319l1.326-1.212l2.815-1.146-2.767-.86.239-.114-1.585-1.319.656-.835-.366-.091.047-.072-1.815-.236l2.336-1.108.324.047-11.196,5.062l3.935-4.588l2.983-.943-.065-.064l13.083-4.45-.333-.213-1.709-2.238-2.63.651l3.189-1.332-2.595-.355.426-.531-1.257.169.059-.984-.788-.475-.133-.468-.623-.14-.52-.522.215-.047.985.229-2.016-2.023.138-.608-.431.125.335-1.125-.798.005.208-.348-.479-.727-.578-.427-.278.381-.01.6-.398.114-.452.707-1.965,1.339-.083-.634-.328.409-1.042.362-1.187-1.32-.533-1.979l1.227-1.614-2.925-.905-.56-.386-3.096-.667-1.961,1.127-.711,1.186.631.017.256,1.946-2.52,7.423l1.349,3.467-.485,1.494-.475.611-1.603-.506-4.813-5.663-7.472-2.822-2.09-2.015-.667-1.193.209-2.249l1.659-3.013.723.321.631-.695-.482-.344-.082-1.253-1.313-.995l3.762.284.094-.251l2.341-.461-3.366-2.457l1.273-.074-.103-.107l3.409-.847.01-.166l3.134.479-1.403-1.179.897.12l2.476-3.746.672-.426-4.493-1.3.71,1.977-1.779,2.287-1.901-1.174-2.01-.167-.875-1.949.65-.264-1.093-.129.308-.208-1.852-.059.972-.697-.571-.124.204-.25.799.142-4.585-2.714.497.159-.512,1.541.008.277l2.61,2.215-1.232,1.111l1.212.288-2.758,3.038.266.568-.678-.771l1.07.068.003-.253-.591-1.972-1.944-.252-.753.465l1.434.735-1.635-.615.295.47-10.988-.89l3.139-.575-2.159,1.048.684,2.074-.109.853-1.318-1.228-7.399-1.455l1.567-.904-11.204-1.848-.552-1.176.236.068-3.433-.707.324.195-1.461,1.056.183-.494-2.225,1.413-.377-.283-1.934,1.138l3.838-2.476-4.943,1.54-.25-.801-1.245,1.22.368.614-17.822-3.291.188-.206-.496-.479-4.173-.226-.265-.907-3.931,1.469.741.211-.511.468-.244-.104-.012-.265.153-.183-2.25.773.334-.182-1.541,1.628-3.203.941-.468.939.109-.093-.257.118l6.989,3.477-2.533-.837l1.677,1.245-3.199-.047.149-.633.272.002-4.576,1.448l1.928.843-.861.178l5.797,1.236L7.46,42.771l.217-.142-1.3,1.656.726.813-.051.364l1.695.101-.342.078-.497.418-1.047.081l2.846.433.787-.661.321,2.481-.533.723l3.406.37.15-.881l2.132-.249-.696,2.504-1.553.944-1.441,1.571-.969-.271-2.3,1.735l2.275-1.037l1.645-.122l1.475-.847.21-.533l5.066-3.557-.907-.422.542-.75.489-.327.192-.706l3.947-1.934.275.984-2.928,1.846.821-.08-.979.762l3.544-1.896.948-1.167l1.563.171-.114.483-.19.13.956.124-.24.276l1.288-.304l3.501,1.215l2.58.106-.318.352-.546.102l3.534,1.444-.613-.396.97-.271.345.233.785,1.007-.439-1.479.109-.01-.09-.157.129-.173l2.314,2.383.082.475l1.67,2.048-.717.723.111.224l1.159-.77l1.074.297-.025,1.227.27-.739.25.143-.07,1.804l1.167.54.643.84-1.042-.408.91.93-.232.78.181.812l1.166-1.495.314,1.11-1.081.095l1.105.408.186.906.661.519-.586.134.968-.085.725-.312.975.956.387.692.75.387-.158,3.054.375-.633-.257.261.147-.967-2.06-.327.608,1.913.317-.011-.111.705-.104-.229-.032.432.91.167-1.139,3.574.097-.018.007,3.365-.067.04l1.468,3.243-.108-.127-.022.292l1.571-.083-.581.706l8.532,11.535-1.032-.19l2.005,1.02l3.359,4.552-1.909-4.477.077.358-3.423-6.141L71.848,98.999l4.951,2.741l6.142.604l5.883,3.043-.215-.09l1.276-.077.16.433-.353-.017l5.107,5.227l3.059.605.278-1.164l1.76.105.362.387-.705.077l1.011,1.884-.05,2.195.119-.038.054.321.3.033-3.418,4.79.294,1.83.175-.301-.624,3.775l2.24,5.452l7.908,8.646-3.013,26.75l1.511-.308-.12,1.185-.215.097-.321,3.801-1.078,1.478.223-1.004-.701.535.605-1.015-1.172.938-.54,1.028.476-.561.907,1.438-.556.148l1.002-.063.353.703-1.278-.24.613.643-.226,1.397.41.149-.845.805.724.438.315-.024-1.535.261l1.242,1.31l1.436.168-.656-.364.555,1.278-1.726-.377.693,1.021l2.275-.33-1.643.912.537.311l1.487-.88-.786.971-.556-.249l4.286-1.487-1.143-1.02.519-2.201l2.937-2.963-.383-3.505l2.416-2.863-.525-.429.595-.487-.639-1.813l2.852-1.786.134-.009l5.69-3.651-1.582-4.665l4.09,2.676l3.206-4.774.081.088-.015-.831.783.254-1.574,2.167l3.583-7.172-.057-.571.582-.065-.06.105.271-.414l4.598-2.265-.317.052.947-.372l2.966-2.325l1.426-7.2-.044.105-.086-.552.253-.857l1.632-1.687-.037.202l1.562-1.833l1.084-2.857v0ZM99.891,71.25L95.51,72.957l-.453-.364.852-1.198.23.24-.714.542l4.466-.927v0Zm-.823-.837l2.205-.715.737.055-.182.028.19-.202-.763.02l1.899-.519-.3.63-.17.134-3.616.569v0ZM85.925,66.051l3.961-2.731-.218.508.329-.732l3.583,1.402l3.407,2.627l1.265.465.775.981.019.139-2.142-.593-.751,2.854-1.025-1.155-.079-.45.194-1.017-1.798-.945-.6,1.302-.077-.041.061-.526-1.95,4.562.07-4.033-.078-.084-.633.383l1.095-1.761.379.387l2.874-.472-1.127-1.046-3.676-.041-.212-.574-2.399.837.087-.478-1.334.232v0Zm38.124-6.519l-1.84,1.322-.854,1.908-.012.33-.883.327l3.158,1.254-.288.424l1.432-.217-1.251.947l1.583-.789-.094.23.611-.51-.197,1.17l1.559-1.156-.438.389.215-.93-1.011.171.791-.829-1.052.324-.377-1.548-.943.616-.024-.562-.759.052-.079-.67-.706.45l1.459-2.703v0ZM103.964,167.908l.873-.783-.604-.853-.269,1.636v0Zm-.223,2.153l.693.774.155-1.39-.21-.18-.764.665.126.131v0ZM50.557,63.734l.938-.09-5.123-3.038.891.294-.023.247-.401.382l1.844.627.326.794l1.083-.165.465.949v0ZM39.619,51.979l-1.256-.373l1.028,1.031.228-.658v0Zm-1.048-1.085l.297-.439-.378-.413-.48-.092-.19-.185.751,1.129v0Zm2.217,2.226l-.109.373l1.726,1.505-.65-1.097.489-.011-1.456-.77v0Zm72.688,130.542l-3.062-2.241-2.282-.472l1.092.951.333,1.434-.286.24-1.405-.822-.07-.403.411,1.162h-1.725l6.994.151v0Zm-7.398-1.317l-.845-.308-.796.049l1.153.461.488-.202v0Zm4.496,2.561l-1.913-.879-.111.366.861.507l1.163.006v0Zm-3.914-1.83l.788-.171-1.039-.327.251.498v0ZM165.123,40.74l2.716-1.531.672-.767-1.451-1.579.555-.49-3.947.394.165.739-1.407-.066-.886-.544-.893,1.42-.563-.791.151-.424-1.463-.83.432.307-.141.697-.873-.273-.097.251.256.227-.609.367l2.146.158-.708.432.794.04-2.413.532l2.598.405-.494.531.63-.111-1.32.501.052.431l1.661-.18l3.062.773l1.375-.619v0Zm-7.851-9.906l-.001-.273l2.228-.983-5.781.15l1.195-.699-2.733-.092l2.036-2.232l5.039,1.439.021-.751.489-.967-5.01-1.923l4.654,1.187-5.619-2.037.965-.109-.653-.496l2.657-.211-.792-.638l5.345.733-1.572-2.218l1.007-.182-1.273-.98-.401-3.422l2.056-2.04l1.476.077-2.433-.149l6.021-6.433-.884-.436l5.689-2.251-9.678-1.219-10.01-.239l8.922-1.396-11.209-1.016l6.65-.735L141.861,0l.869.559-9.11.552l5.461.647-10.271.638l1.545,1.393-3.712-1.036-.568,1.708-6.091-.835l2.828,1.567-6.838,1.178-1.227,1.931-6.178,3.133-.117,2.175l3.936,1.242-4.633.782l1.109-.134l1.685.749-1.461.552L123.193,20.8l-1.04.835l1.666,2.281.093,1.655.79-.398.876,1.423.392-1.39.226,1.544l1.781-.181-1.436.699l1.432.585l1.185,1.136-4.125-.538l4.519,1.302-.836,1.508.832.072-1.015.796.471-.142-2.746.954l2.317-.224-2.692,1.579l3.038-.423.292.461-3.2,2.437l2.548-1.282-2.311,1.467l2.455.519-.888,2.628.836-.964-.087.269.278-.981l1.014,1.289-.88-.19-.932.601l1.356-.184.188.167-1.373.351l1.871,1.607.255,1.337.773.249l1.128,1.75.043.429-.071-.158l2.054-.625l1.202.902-.666.45-.013.27l1.231-.112.169.551.436.104-.318-.263.016-.86l1.445-1.848-.38-1.64.818-.809l1.163-3.198l1.606-.413l1.127-1.161.818-.441-.431-.218.216,1.313l1.521-.65.158.308.546-1.068l3.774-3.582l1.714.34l6.85-2.191v0Zm-45.745,69.362l1.177-.518.027.044-1.204.474v0Zm-10.101.073l-1.766-.46l1.195.692.487-.272-.028.027.112.013v0Zm1.657-2.16l1.043-.364-3.443-1.522.236-.035-4.39-1.679-3.457,1.532l2.586-.678l1.698.294l2.953,2.501l2.734-.167.04.118v0Zm6.854,1.848l-.998-1.035.417-.122-4.484-.493l1.164,1.202-2.273.189l3.241.888l2.933-.629v0Zm67.209-48.841l-.08.727.578.143-.458,2.125.663-1.338.209.111.231.328-.349,1.841l2-.386.305,2.384-1.442.565.13.533-1.367.936l1.25.311-.154.127l1.92-.241-3.436,2.318l4.608-1.031-.089-.105l3.02-.652-1.056-.144.35-.371-1.506-2.842.827.166-.213-.735-3.95-2.907.511-.4-.879-1.833l1.153-1.621-2.244,1.158-.453.51-.079.323v0Zm-1.158-1.509l-.364.779.564-.427-.2-.352v0ZM97.552,40.873l-.39-.235-1.316-.219-3.543-2.588-2.08,3.321l7.329-.279v0Zm75.01,17.849l.049.02.332.351-.557.386.635-.114-.331.278l3.06-1.081.683.004-.147-.14.261-2.5.705-.411-.12-.26.199.157-2.006-1.346.068.09-.38.482-.098-.314-1.081.74.673.059-2.09.707.169.116.083-.029-.062.336.206.374-.08.302-.086.075l1.009.195-1.052.91l1.208-.157-1.197.392.143.219-.196.159v0ZM85.834,4.67l1.568-.162-.839.518l3.211-.242-1.718.692l4.55-.091-4.608.925l6.371-.579-3.547,1.28l4.684-.35-.707.478l6.397-2.115-1.952,1.194l1.989.182L94.69,7.762l3.052,1.573-3.68,1.457-1.058-.042l3.005.224-6.186,1.85l1.739-.382-.317.601l1.53-1.026-.136.663l2.468.566-7.438,3.352l1.092.156.054-.774l1.073.412l5.289-.302.494-1.244.435-.543L103,12.478l-1.303-.424l2.115-.492-4.423-.82l4.372-.363-2.578-.669l3.943-.2-1.555-.57l3.523-.184-.754-.468l7.766-3.42-4.202.581l8.012-2.744-7.744-.811l2.182-.716-5.333-.249.516.313-1.833.475-4.761-.754l1.662,1.048-4.894-.792l1.5.606-3.126.419l2.406,1.708-3.543-.875.417.335-4.542-.392l1.675.605L85.834,4.67v0Zm19.952,22.027l-.64.63-1.084-.236-.6.128.063-.658-.538-.065l1.062-.529-1.826.514-2.961-1.251.121.931-1.385-.585-.861.146-5.079-2.001l1.277.621-.391.839.361.657-1.735.114.969,1.658-1.692.245l1.67-.664.082-4.725-2.339,5.386-2.469-.097l9.187,2.458-.865-.609l2.396-.581.361-.387l2.066,1.8.954-.017.626.839-1,.95l1.993-.64.686.61.236.025.321,5.735-2.397.324.465.564-.096.219.572.085.25-.067l1.504.424l2.016,1.69-.652.274l6.329,2.388-2.989-2.95l1.03.031l2.97,1.84.453-.455-.542-1.436.562.866.27-.77-1.261-1.019.068-.329-1.246-.529-2.187-2.398l1.669.29-.747-.759.926-.273l1.448.734l1.292-.197-.117,2.086.304-.49.707.812.158-1.597l1.564-.318-.6-.651.458-.417.821-.082-2.504-.235.706-.734-1.77-.207.738.006.167-.393-1.05-.766-.603.57-1.057-.284.191-.813-.503.457-.032-.759-2.803-.779l1.557.158.142-.276-1.375-.304l2.518-.173-2.742-.598.258-.877-1.118-.121l1.812-.912-3.275.751-1.284-1.341l1.543-.864-1.484-.637v0ZM194.645,9.286l1.417,1.003.342.738-1.107.007l3.489,1.244.796-.826l1.491.25.416.57-3.055.945l2.907.471-3.207.571l7.852-2.735-.948-.562.284-.182-3.303-.77-1.414.964-4.04-1.4l1.457-.459-.007-.132-3.37.303v0ZM280.888,7.89l6.163-.13.47-.916-4.898-.229-1.735,1.275v0Zm6.345.246l-4.815,1.613l7.313,1.258-.946-.779-1.092-1.74-.46-.352v0Zm42.032,11.172l6.527.561-1.11-1.47l3.491.279-8.161-.491-.747,1.121v0Zm-39.179-7.532l-1.04,1.365l6.456-1.277-3.124-.562.731-1.088-.903.102-2.12,1.46v0ZM202.737,8.399l2.604.747-1.184.375l3.403.426l4.427-1.708-4.161-.149-.881.333-2.853-1.003-.082.728-1.728.048.455.203v0Zm6.993,5.382l-1.545-.895-3.438-.755.354.135l1.166,1.136-.774,1.048l1.599.322l2.638-.991v0Zm42.967,2.8l-9.892,2.869.616.447-.386.967-2.531,1.509l3.763-.099l3.146-2.406l7.342-2.434-2.058-.853v0Zm-14.518,9.203l1.951,1.062.224.384.569.401-.319.107-.504.38l4.522.278-1.274-4.871-3.264.575-1.905,1.684v0ZM9.229,55.003l-1.887.261.086.183l1.855-.365-.054-.079v0Zm-2.73-8.456l-1.856.119l1.856-.119v0ZM3.23,41.789l-3.184-.817L0,41.438l3.23.351v0Zm.996,14.977l-1.346.968l1.346-.968v0Zm1.538-.307l-.175.028.339-.335-1.682.878l1.599-.538-.081-.033v0Zm14.899-5.818l-.869-.476-.494.484.003.51-.739.315.296.114.396-.047l1.407-.9v0ZM75.552,30.318l-7.465-6.825.672,2.639-3.577-2.217.485.696-1.802.608.667-.713-3.467.242-3.435,1.844l2.601.324-3.278,1.019l7.192,1.26-4.766,1.828l12.527.758l1.314-.511-.334-.864l2.666-.088v0ZM73.845,17.243l-1.349.346-.197.225l1.006.032-.291.333.831-.936v0Zm6.604,2.602v0v0v0ZM102.282,32.87v0v0v0ZM80.133,25.248l-1.901-1.197l1.271-.972-.41-.122.658-.396-3.444-.439.336.087-1.12.114.471.7-1.063-.114l1.806.592-.324.621l1.925,2.095l1.622-.928.173-.041v0Zm.485,5.923l-2.415-.412-1.182.792l4.574.421-.977-.801v0Zm5.261-7.854l.955-1.153-4.631.42.518,1.836l3.158-1.103v0ZM49.075,26.002l6.396-.559l4.666-2.529-3.972-1.054-.474-.448-5.474-.24-1.142,4.83v0ZM65.673,13.445l-3.196.782l3.196-.782v0Zm16.585-5.02l-2.268-.21l2.528.96-1.419.757l4.728.108-3.053.891l2.448,1.051-1.046.191l3.582.662-.583-1.002l2.129.261.225-1.282-.035.791L92.5,10.249l-2.402-.701-.669-1.241-.296-.034-6.419-2.998l1.05.438-2.43.786l1.692.686-2.351-.324.622.793l1.372.417-.411.354v0Zm-5.77.363l1.298.386-1.298-.386v0ZM78.58,11.88l.038.066l1.19.936-.761.141l2.483-.308-2.95-.835v0Zm-.99,4.448l.142.327-2.132-.022.973.357-.405.09.871.272-.17.443-2.599-.745.619.107.134.53.489.417-1.946.427l3.842-.213-1.618.626-.021.127l3.26.466.36-.623-1.799-2.586v0Zm3.238-1.932L83.876,14l-3.048.396v0Zm6.549,6.359l1.447-.587l1.942.711-.068-.142l7.814-.757-1.046-.246.103-.969-9.98-.16-1.878-1.415l2.333-.083-2.372-.525.96.006-3.19.104-3.496-1.025.439.256-.529.096l5.118,2.235l1.299,1.934l1.104.567v0Zm-34.951-3.45l3.306-.375l1.818-1.019l2.141-.298-.553-.44.916-.383-1.315-.159-6.61,2.747.297-.073v0Zm8.546-3.553l1.055-.101-1.504-.349.449.45v0Zm.732,3.419l-2.029-.22.004.131l1.113.212-2,.527l1.773.071-2.316.541l2.177-.131-2.643.928l7.001.096-3.564,1.172l5.999-.675l1.959-1.464-1.181-.27-.411-.606-1.561.338-4.321-.65v0Zm.8-4.593v0v0v0Zm8.142-1.737l.603.475l1.155-.209.55.425-1.731.504l2.415.34.165-1.178-.165-.21-2.992-.147v0ZM373.361,161.084l-2.379-.04-.713-1.35-.606.525-.534-1.372.203.014-.209-.502.009.001-1.008-.627-.175.161-.256-.656-.36.03.981,1.033.6,1.414.789.717-.207.159.207.719-.834,1.651.521,2.671l1.755-.773l1.735-1.785.481-1.99v0Zm-4.502,4.498l-.106-.009.281-.279-.538.318.219-.445-1.13-.501-1.089,1.059-.97,1.934-.046-.214-.249.399-.132.079-.328.02.098.097-.572.312.053.026-.08.117-2.524,1.84-.06-.168-.161.33-.031.272-.08.158-.25-.005.075.164.013.236-.304.233-.072.2.284-.112l2.463.66l1.889-2.03.258-.842.848-.727.585.092-.114.078.054-.476l1.965-3-.249.184v0Zm-53.36-56.842v0v0v0Zm-1.781.177l.817.861.34-1.957-1.157,1.096v0Zm-.967-2.874l-1.258-.889l1.125,1.193.133-.304v0Zm-2.143,14.313l.983,4.952.598-3.089l1.843,1.767-1.454-2.604l2.216-1.162-3.622-.728l5.542-1.68-.131-.194-5.616,2.691-.359.047v0Zm2.686-13.575l-.079,1.552l1.003-1.067-.924-.485v0Zm2.431.438l.767,1.552-.042-.357.166.191-.891-1.386v0Zm-.798-1.027l-.344-.148-.085.704.947.187-.518-.743v0Zm26.424,60.481l-1.591-1.192-2.271-.622.552,1.922.102-.063.146.439-.287-.332l1.096,1.437.821-.257.321-.467.164.31.356.239.169-.048.286-1.546.136.18v0Zm5.582-16.651l-11.856-19.274-.527,1.44-.097-.084.053.887-4.686,3.626-.67-4.226-.381-.307-.299.51-.36-.652-4.382-.593.961.912-.321.184-1.195-.244-1.767,3.303-1.669.205-2.148-1.458-1.652,2.153.153-.181.132.647-1.199-.242-.09,1.456-.632-1.178-9.414,6.629-.018-.726-.037,5.108-.682-.897.427.829-.528-.285-.183.115l2.336,5.068-.406,3.404l5.206.948l14.396-2.928l1.86,3.251.904.473l1.933-2.85-.959,3.158l1.285-1.276.102,1.724l1.179-.002-.343-.036l6.074,3.19-.287-.09l2.138,1.241-.194-.517l4.1-2.656l1.245-3.021-.113-.029l2.611-6.709v0Zm-40.382-21.726l-1.31-.306.656.754.654-.448v0Zm-86.626-48.13l.099-.082-2.405.694l1.866.113.44-.725v0ZM195.201,53.511l.627,1.42.003-1.763-.63.343v0Zm.331,1.581v0v0v0Zm-1.873-.579v0v0v0Zm4.164,22.754l-1.066-.244.978,1.233l1.558.59.557-1.926-2.027.347v0Zm-5.922-3.451l.125,1l.808.907.564-1.131-.065-.975-1.432.199v0Zm1.18-2.433l-.397.08-.255.443.086.528.458.609.108-1.66v0Zm102.393,49.981l1.604.753-1.193-.889-.411.136v0Zm3.962-3.237l.956,3.07l1.036,1.274l3.674.346.193.149l1.846-.265-.097-.202.224-.376-.073.027-.034-.866l1.744-3.044l1.145.123-1.274-1.104-.097-.909-.138-.043-.548-.733.483-.115l1.148-.719-.347-.612l1.054-.223.007-.176-1.871-.551-.76-.764-5.935,5.511-1.353-.459-1.005.625.128-.014-.106.05v0Zm4.374,10.043l1.547.512-3.469-2.131-3.529-.753-2.522.441l2.537,1.308l5.436.623v0Zm-4.341-29.745l1.627-.398-1.504.229.105.008-.228.161v0Zm16.242,7.634l1.536,1.626-1.536-1.626v0Zm5.668-23.122l.406.581-.333-.246.096.576.777-.102.152.045-.47,1.554.414.132.07-.63.033.82l1.292-2.624-2.437-.106v0Zm3.533-2.583l-2.138,1.833l1.31.163l4.966-1.444.274.559l3.181-1.258-.214.86l1.098-.97.62-6.99-.698.335-.442-.114-3.266,4.593-4.691,2.433v0ZM311.223,94.539l.256.745-.011-.006.584.571-.829-1.31v0Zm-.107,7.59l.639,1.443.057,1.161l2.093.656-.12-.792l1.766.962-.381-.081.077-.74-.806.053-.939-5.148-2.386,2.486v0Zm-40.682,9.413l-1.496-2.183-.366-.103-.358,1.366l2.22.92v0Zm-33.608,23.744l-1.119-3.072L234.322,135l-.561.034-.403.813-2.771,1.98-1.135,3.805.281,3.573l2.645,1.298l2.27-3.866l1.571-6.798.497.552.11-1.105v0Zm58.635-9.999l-.695-3.147-4.014-4.798-6.035-3.825l7.096,9.416l3.648,2.354v0ZM323.962,82.94l.72.517-.071.165l1.642-.572.595-.678-1.212-.502-1.674,1.07v0Zm19.837,47.413l.227-.109-4.153-3.618.951-.181-6.834-4.155-3.26-.44-3.771.624-4.103-1.568l3.119.715-.139.203-.097.349-1.843.173l1.649.659.345-.377l4.796,2.773.559,1.254.335.352.076.841.925-.063l1.811,1.256.418-.967l1.794-.189-.052-.081.108.003-.307-.514l2.484.808l3.105,2.175l1.857.077v0ZM334.38,58.218l.291,9.078l1.445-.147l1.367-3.493-2.535-7.917-.568,2.479v0Zm-1.572,13.035l-.259,1.819l1.136-.47-.891-.671l5.883-1.344-.494-1.215-3.963-1.33-1.412,3.211v0Zm-19.345,57.388l.61-.579.17.038-3.245.21l2.465.331v0Zm-3.5-.03l-.203-.306-1.021-.282.511.471-1.542.44l2.255-.323v0Zm6.936.609l2.014-.905-3.937,1.966l1.923-1.061v0Zm-6.823.368l1.914.521-1.914-.521v0Zm11.67-6.607l.909.493-3.122-.672.025.29l2.188-.111v0ZM385.994,36.9l-.882-.186-2.562-1.442-.361.379.201-.388-1.484-.039.518,1.522-1.396-1.999-3.197-2.19.339.551-.743-.725.228.138-11.687-2.854-.348.906-9.921,2.017-1.203-3.954L345,27.998l.352-.078-2.127-.394-1.253-.951.045-.094l1.121-.262-5.359.28.078-.339l1.245-.417-.24.379.881-.692-2.84.073l2.202-.181-5.496-.473-2.067.512.037.329l1.079-.055-.885.474.667.901-2.281.515-5.535-1.365-3.404.366-.361-.42-1.489-.911l1.661.637-.922-.879.192-.722.536-.437-3.735-.68-3.276.873.241.221-4.608-.686.513-.553-5.357.351-.187,1.395-.935-2.654-1.37-.138-2.01.47l1.281.143-6.104,1.934l9.151-5.53-1.358-.814l1.103.573-.531-1.46-.353.405-.762-.712-5.926-.457l1.114-.744-3.44-.389l1.979-.645-4.666,2.006-3.068.011.679,1.472-6.986-.23l1.35-.106-7.714,1.811.53.363-1.735.622l1.533.586-1.31.099l1.674,1.043-.912,1.396.334-1.423-4.21,7.351-.239-.022-.187-.214.2-1.409-.691,1.07l1.08-2.455-6.209-.864.877.306-2.346.083l3.253,1.769-4.581-3.56-.956,6.564l4.01.956l1.355,2.396-1.931-1.831-8.635,3.26l1.787.077.72-.384.583-8.537-2.417-2.673-2.984,3.613.054,2.869l2.392,1.122-9.565-1.191-1.142,2.122-.919-.716-5.306,1.039l1.312-1.331-8.736,3.893.419-1.802-3.58-1.503.822,4.774-.6-.201-3.303,2.326-5.857.039-1.696-2.726.314-.199-1.878-1.274l1.105.133l1.62.773l5.646-2.71.082.189-7.125-1.853-1.119-1.051.963.013-4.493-.978l2.324-.376-2.951.181-.314-.818-1.4.511.081-1.015-1.725,1.585.786-1.35-2.588,1.587-2.142-.425.67.705-2.047.939.287-1.148-.727.978-.773.166-2.551,1.56l1.116.08-1.343,1.03-.736-.121-.876.251-.02.243.867.586-1.229.139l1.059.044-1.572.806.078.876-1.332.346.14,1.323-1.727,1.003.358-.101-2.173,1.921l1.986-.545-.301.175-.443.733-2.517-.124.239,1.145-2.013.208l1.45-.019-3.197,1.156l1.742.256-1.484.623l2.244.082.172.361-2.767.277.683.56.042.897-.579.763l1.972-1.38-1.313,1.115.477-.038-1.107,1.048l1.312-.623-.043.874.351,1.2.234.125l2.557-1.101l1.37-1.417.845,1.138-.148,1.033l1.502,2.927-.197.225.441,1.306l3.057-1.723l1.251-2.925-.759-.222l2.563-1.074-.697-.05-.818-3.765.287.065.179-.894.431-.603.061-.389.436-.252-.202-.012l1.261-.711.009-.141l2.033-3.07.722-.508l3.435.447-3.898,3.912.03,3.571.835,1.297.533.32l3.885-1.27-.076.342l2.226-.125-.14-.078l1.738,1.056-6.471.786-.398.911.905.668-2.758,1.158-1.437,3.908.554-.935-2.856,1.283.388.164-5.302.736.807.706-5.028-1.208-.441-.83.479-1.186l1.09-.896-.338-1.955-2.497,1.489.99.078-1.101.142.436,2.188l1.291,2.298-4.664.574-1.309,2.192-.189.02.287.175-.052.119-4.037,2.65-2.449-.289.512,1.407-3.054.473-.093.18-.373.176l3.131,1.105.758,1.955-.189-.039.705,1.01-.567-.696-.175,1.131.18-.03-8.194,1.935-.383,3.599.482,2.381-.227-.027-.124,1.728l2.275-.299.499.543.191-.099l3.338.216l3.506-2.473.547-2.564l1.076-.395l2.232-2.695l2.625-.117l1.295-.537h1.596l5.706,4.024l1.478,3.292l2.791-2.322-6.191-7.306-.111.101l1.44-.21.083,1.034l1.717.735-.371.019l2.773,1.81-.724-.21l1.707.73.722,2.568l1.95,1.843.19.536l1.695.648-1.096,1.487.636.351.715-.001-.463-1.329.814.124-.472-.564l1.036.275-1.547-1.459.811-.379-.434-1.761.785.819-.288-.358.598.319.422-.226-.619-.75l3.23.152-.629.688l2.937-1.168.107-.278-1.678-1.568l1.497-2.71-.086.014.307-.534-.051.284l2.683-2.658.209-.58.873.795-1.091.081.24.305l1.935.301.076.197-1.234.713l4.337.013-1.434-1.379-.231.443l3.997-1.534-.223.148.785.106-.841.542-.783.036.773.722-1.889.946l5.006,4.131-2.427,1.397-4.263-1.17-6.5,1.24.849.335-1.127.255.286.138-1.288.053-1.851,1.138.838-.102.261,1.354-.909.216l1.037,1.586l1.043-.064-.168.337l8.493-.192.14.125-4.227,6.55-.475.001.128-.221.261.165-1.677-.088.384-.175-10.515-1.417-5.267,1.77-5.248-2.327-.521-.521.44-3.817-.077-.241-14.957,2.01-2.458-.595-3.794,3.551-1.454,4.123-6.164,6.47.192-.192L165,97.205l.552.107.091,1.358.149-.043-1.312,5.172l2.248,1.386-.808.199-.283.754.219.368l1.244.288.025.885.402.484.089-.084.964.896-.002.417.84.937.451.96l7.91,2.78-.326-.021l1.419-.084-.61-.007l1.696.112-.243.017l7.461-1.557-.321.166l2.14.864.099.146-.079.339.848.763.329-.046.3.108-.099-.371l2.018.057l1.15.865.28,3.865-.219.159-.472-.316-.694.987.685.775-.33-.017.279.628.814.683-.363-.086l3.568,3.593-.016,3.336.042-.115-1.2,7.219l6.924,21.103.894.319l8.931-2.058l5.63-7.833-.113.208l2.703-4.272-.784-3.038l6.395-5.611-.168-4.049-.812-.815-.468-2.354l1.709-6.103l10.986-13.322-.171.117.238-1.482-9.313.277.51-1.423-3.427-2.395-2.811-6.523.113.071L217.9,86.874l1.764,2.536.804-2.053-.372,1.71l4.604,5.839h-.063l4.165,8.34-.098-.065.843,2.828l12.94-5.184l2.795-3.394.012-3.254-1.965-3.163-1.297,1.497-3.829.77-.36-.301-.006-1.742-.488,1.537-.697-2.113-.975-.942-1.166-2.383.915-1.079l2.684,2.987l2.627.924l3.122.119l2.277,1.783l7.913-.032-.359-.054l1.616,1.765.228.019.273.167.052-.117.653.006l1.825.85-1.605.783l3.256.624.155-.495.668.04-.284.594.608-.06-.532.32.128-.011.269,2.415-.163.33.147-.194l1.022,4.085h-.141l2.604,5.869l3.378.783.795-4.836.161.245l2.042-3.983l4.291-3.148l1.807-2.563.37.683.377-.403.231.417.206-.386.46-.202.092.562.444-.774-.033.491.271-.148.365-.831-.302-.615.358-.151.934.787.338.653.071-.06.916,2.27-.016-.294.349.174-.021.242.085.004.652.295-.229.596.59.09.214.599-.08.009.567,2.418-.044.658.247-.301.482.092l1.605-1.415.934.904.45,3.155.055-.358.721,2.426-.335,1.8.149-.167l2.502,6.895l3.127,2.186-1.147-2.827-2.927-3.497.41.396-.407-1.361l2.234-4.148.358.205l2.319,3.848l1.131-1.494.326-.235.349-.083.152-.178l2.781-1.652.034.109-.042-.543.104.026.149-.223-.211-1.348.044.097-3.127-4.33.131.05l2.135-4.595l1.11.234.253.147.239,1.276-.104-.011.561-1.02l2.855-.963.566-1.021.691.925l3.305-1.438.507-.99l1.897-1.03-.515-.824.479-.751.251-.069.984-1.324.92-.323-.074-.733-.099-.229.062-.406.616-.445-2.015-.429l1.794-.784-1.964-1.189l1.951.272.854-6.795-3.881-.612-.054-1.573l3.029-.251-.699.809l4.684.057-.92.683.591.089-.274.154l2.01,1.349-.738.16.462,1.352-.021.894-.129.082.055.069.853.279l2.398-1.901-2.159-4.294l3.372-3.89l1.39-.798-.157.237.475-.28-.008.551l9.103-13.773-2.327-1.746-.436,1.12-.442-.61-.527-.223.348-.265-.544.669-.466.024l2.973-5.26l10.031-2.961.31-.321l1.56-.106-.196.097l1.896.424-1.216.219l4.307-.167.008-.265-1.085-.264l6.567-3.776-.553,1.514.628-.111-.22.619l5.592-2.924-.223.12-9.022,17.186l1.84-2.913l1.656-.14l2.07-2.256l1.143-2.713-.07.729.271-2.648-.889.111l1.836-3.379l2.388-.93-.178,1.005l4.441-.183l9.002-5.802-.602-1.387-3.925-.544l2.852-.304-.94-.318l3.887-.029v.013l.337-1.938l1.234-.382-.44.647l6.995,2.758-.754-.657.713-1.087-.391-.4l1.789.295-.369-.492l1.788-.613v0ZM241.513,73.755l-.354.248-1.528.185.099.962.213.206-.085.425.558,2.954.252-.093-3.738-.148-1.375-2.389l1.328-1.583-2.321-2.377-.579-2.197-.196.424-.489-1.71.086.077.585-1.003l1.844-1.09l4.093,1.421-1.767,1.044-1.328-.066l2.722,3.089l1.98,1.621v0Z" transform="translate(0 7)" fill="#abe4ff"/><path d="M252.958,200.175c-3.679-9.744-6.258-20.82-4.796-31.661c1.313-9.742,4.617-19.863,9.845-28.567c5.453-9.083,8.542-18.539,11.337-28.284c5.567-19.424,3.667-49.802-8.973-65.581-14.652-18.287-35.226-23.577-57.213-23.93-22.437-.36-44.138,9.329-57.482,25.14-7.461,8.84-10.979,16.208-13.455,27.077-4.088,17.95-4.815,20.391-4.557,22.738.538,4.875,2.629,4.373,3.232,6.725c1.521,5.926-.806,9.034-5.653,15.19-6.071,7.709-13.328,15.406-13.328,18.971.001,6.45,8.078,4.833,13.432,8.003c5.445,3.223.057,8.311.134,13.345.028,1.836,1.681,1.14,5.267,3.02-1.928.588-5.864,1.904-4.743,3.898c9.964,8.318-4.34,17.642,7.194,24.75c11.844,7.3,35.542,4.062,39.435,7.274c3.892,3.213,7.484,8.079,10.415,19.8l79.081,9.225c-.001-.001-7.431-22.525-9.172-27.133Z" fill="#4ba3cc"/><g id="evjVIsFdx6Y4_tr" transform="translate(199.320015,107.724602) rotate(0)"><path d="M181.948,83.467l1.952,6.375c.248.826-.053,1.994-.673,2.596c0,0-.105.098-.677.756-.571.659-.652.778-.652.778-.508.699-1.62,1.163-2.473,1.036l-6.588-1.025c-.849-.131-1.82.413-2.151,1.217l-1.796,5.392c-.207.84.243,1.863,1.006,2.264l5.88,3.132c.763.401,1.396,1.448,1.408,2.311l.147,2.005c.11.863-.374,1.982-1.069,2.492l-5.374,3.93c-.702.517-.998,1.589-.677,2.388l2.553,5.088c.438.745,1.472,1.142,2.302.891l6.375-1.944c.822-.251,1.997.05,2.596.673c0,0,.097.099.756.669.659.571.77.653.77.653.703.504,1.167,1.624,1.036,2.474l-1.017,6.587c-.131.857.409,1.824,1.213,2.155l5.392,1.796c.84.207,1.859-.239,2.271-1.007l3.125-5.878c.405-.76,1.449-1.396,2.314-1.413l2.01-.136c.854-.11,1.978.363,2.483,1.062l3.938,5.374c.506.698,1.582.998,2.384.673l5.081-2.545c.749-.442,1.149-1.48.898-2.302l-1.951-6.375c-.248-.826.049-1.997.673-2.595c0,0,.102-.101.673-.76.57-.659.656-.774.656-.774.504-.703,1.62-1.164,2.474-1.036l6.587,1.024c.85.131,1.82-.413,2.151-1.217l1.796-5.392c.207-.84-.242-1.863-1.006-2.264l-5.88-3.132c-.764-.402-1.392-1.445-1.404-2.307l-.151-2.009c-.106-.859.374-1.982,1.068-2.492l5.375-3.93c.701-.517.997-1.59.673-2.392l-2.545-5.082c-.441-.749-1.477-1.145-2.306-.894l-6.375,1.945c-.822.251-1.997-.049-2.596-.674c0,0-.098-.098-.756-.669-.659-.571-.771-.653-.771-.653-.703-.503-1.167-1.624-1.036-2.473l1.018-6.587c.13-.857-.41-1.825-1.209-2.151l-5.4-1.803c-.836-.204-1.855.242-2.268,1.01l-3.125,5.879c-.405.76-1.444,1.399-2.314,1.413l-2.005.14c-.855.11-1.981-.367-2.487-1.065l-3.938-5.374c-.506-.698-1.582-.998-2.384-.673l-5.081,2.545c-.749.439-1.15,1.478-.899,2.3Zm28.125,18.687c3.076,5.938.756,13.246-5.183,16.322s-13.246.756-16.322-5.183-.756-13.247,5.183-16.323s13.246-.755,16.322,5.184Z" transform="translate(-199.320015,-107.724602)" fill="#fff"/></g><g><line x1="308.335" y1="94.589" x2="200.992" y2="106.575" fill="none" stroke="#7acaff" stroke-linecap="round" stroke-linejoin="round" stroke-dasharray="3,3"/><line x1="335.219" y1="80.324" x2="310.058" y2="94.323" fill="none" stroke="#7acaff" stroke-linecap="round" stroke-linejoin="round" stroke-dasharray="3,3"/><line x1="335.219" y1="80.324" x2="310.951" y2="135.366" fill="none" stroke="#7acaff" stroke-linecap="round" stroke-linejoin="round" stroke-dasharray="3,3"/><line x1="335.219" y1="80.324" x2="304.871" y2="64.153" fill="none" stroke="#7acaff" stroke-linecap="round" stroke-linejoin="round" stroke-dasharray="3,3"/><line x1="310.058" y1="94.323" x2="310.058" y2="136.623" fill="none" stroke="#7acaff" stroke-linecap="round" stroke-linejoin="round" stroke-dasharray="3,3"/><line x1="199.499" y1="107.511" x2="170.882" y2="62.684" fill="none" stroke="#2e89b2" stroke-linecap="round" stroke-linejoin="round" stroke-dasharray="3,3"/><line x1="248.672" y1="17.119" x2="233.544" y2="66.924" fill="none" stroke="#2e89b2" stroke-linecap="round" stroke-linejoin="round" stroke-dasharray="3,3"/><line x1="233.613" y1="69.741" x2="170.882" y2="64.757" fill="none" stroke="#2e89b2" stroke-linecap="round" stroke-linejoin="round" stroke-dasharray="3,3"/><line x1="297.526" y1="62.383" x2="233.613" y2="69.741" fill="none" stroke="#2e89b2" stroke-linecap="round" stroke-linejoin="round" stroke-dasharray="3,3"/><line x1="248.672" y1="17.119" x2="297.526" y2="59.272" fill="none" stroke="#7acaff" stroke-linecap="round" stroke-linejoin="round" stroke-dasharray="3,3"/><line x1="300.301" y1="63.214" x2="309.441" y2="95.943" fill="none" stroke="#7acaff" stroke-linecap="round" stroke-linejoin="round" stroke-dasharray="3,3"/><line x1="103.562" y1="23.748" x2="124.241" y2="66.831" fill="none" stroke="#7acaff" stroke-linecap="round" stroke-linejoin="round" stroke-dasharray="3,3"/><line x1="97.082" y1="121.804" x2="67.132" y2="129.936" fill="none" stroke="#7acaff" stroke-linecap="round" stroke-linejoin="round" stroke-dasharray="3,3"/><line x1="58.436" y1="89.213" x2="67.603" y2="123.947" fill="none" stroke="#7acaff" stroke-linecap="round" stroke-linejoin="round" stroke-dasharray="3,3"/><line x1="97.034" y1="121.026" x2="144.055" y2="108.426" fill="none" stroke="#55b9c9" stroke-linecap="round" stroke-linejoin="round" stroke-dasharray="3,3"/><line x1="88.473" y1="81.783" x2="95.179" y2="118.981" fill="none" stroke="#7acaff" stroke-linecap="round" stroke-linejoin="round" stroke-dasharray="3,3"/><line x1="88.95" y1="83.625" x2="68.544" y2="125.87" fill="none" stroke="#7acaff" stroke-linecap="round" stroke-linejoin="round" stroke-dasharray="3,3"/><line x1="144.588" y1="107.255" x2="88.473" y2="81.783" fill="none" stroke="#55b9c9" stroke-linecap="round" stroke-linejoin="round" stroke-dasharray="3,3"/><line x1="88.473" y1="81.783" x2="123.808" y2="65.164" fill="none" stroke="#7acaff" stroke-linecap="round" stroke-linejoin="round" stroke-dasharray="3,3"/><line x1="123.808" y1="65.164" x2="172.308" y2="64.995" fill="none" stroke="#2e89b2" stroke-linecap="round" stroke-linejoin="round" stroke-dasharray="3,3"/><line x1="172.308" y1="64.995" x2="102.622" y2="22.642" fill="none" stroke="#2e89b2" stroke-linecap="round" stroke-linejoin="round" stroke-dasharray="3,3"/><line x1="144.588" y1="107.255" x2="171.398" y2="66.636" fill="none" stroke="#2e89b2" stroke-linecap="round" stroke-linejoin="round" stroke-dasharray="3,3"/><line x1="199.499" y1="107.511" x2="233.544" y2="68.904" fill="none" stroke="#2e89b2" stroke-linecap="round" stroke-linejoin="round" stroke-dasharray="3,3"/><line x1="69.24" y1="62.684" x2="105.046" y2="22.777" fill="none" stroke="#7acaff" stroke-linecap="round" stroke-linejoin="round" stroke-dasharray="3,3"/><line x1="68.544" y1="66.137" x2="58.812" y2="86.688" fill="none" stroke="#7acaff" stroke-linecap="round" stroke-linejoin="round" stroke-dasharray="3,3"/><line x1="88.95" y1="83.625" x2="60.912" y2="86.144" fill="none" stroke="#7acaff" stroke-linecap="round" stroke-linejoin="round" stroke-dasharray="3,3"/><line x1="88.95" y1="83.625" x2="102.807" y2="23.358" fill="none" stroke="#7acaff" stroke-linecap="round" stroke-linejoin="round" stroke-dasharray="3,3"/><circle r="5.587" transform="translate(97.034 121.026)" fill="#a3cc70" stroke="#fff" stroke-linecap="round" stroke-linejoin="round"/><circle r="5.587" transform="translate(58.436 89.213)" fill="#f90" stroke="#fff" stroke-linecap="round" stroke-linejoin="round"/><circle r="5.587" transform="translate(124.241 66.831)" fill="#ef8c00" stroke="#fff" stroke-linecap="round" stroke-linejoin="round"/><circle r="5.587" transform="translate(233.613 69.741)" fill="#ef8c00" stroke="#fff" stroke-linecap="round" stroke-linejoin="round"/><circle r="5.587" transform="translate(144.839 108.223)" fill="#009eff" stroke="#fff" stroke-linecap="round" stroke-linejoin="round"/><circle r="5.587" transform="translate(68.544 66.137)" fill="#f18703" stroke="#fff" stroke-linecap="round" stroke-linejoin="round"/><circle r="5.587" transform="translate(88.95 83.625)" fill="#f25a58" stroke="#fff" stroke-linecap="round" stroke-linejoin="round"/><line x1="171.929" y1="65.603" x2="248.729" y2="17.047" fill="none" stroke="#2e89b2" stroke-linecap="round" stroke-linejoin="round" stroke-dasharray="3,3"/><line x1="159.045" y1="16.664" x2="248.729" y2="17.047" fill="none" stroke="#7acaff" stroke-linecap="round" stroke-linejoin="round" stroke-dasharray="3,3"/><path d="M253.679,14.443c1.897,3.718-.648,8.047-4.82,8.195-2.103.075-4.123-1.113-5.079-2.987-1.897-3.718.648-8.047,4.82-8.195c2.103-.075,4.122,1.113,5.079,2.987Z" fill="#75b7d9" stroke="#fff" stroke-linecap="round" stroke-linejoin="round"/><line x1="102.547" y1="23.045" x2="159.472" y2="15.397" fill="none" stroke="#7acaff" stroke-linecap="round" stroke-linejoin="round" stroke-dasharray="3,3"/><path d="M176.348,62.032c1.897,3.718-.648,8.047-4.82,8.195-2.103.075-4.123-1.113-5.079-2.987-1.897-3.718.648-8.047,4.82-8.196c2.103-.074,4.123,1.115,5.079,2.988Z" fill="#75b7d9" stroke="#fff" stroke-linecap="round" stroke-linejoin="round"/><path d="M339.135,77.507c1.897,3.718-.648,8.047-4.82,8.195-2.103.075-4.122-1.113-5.079-2.987-1.897-3.718.648-8.047,4.82-8.196c2.103-.074,4.123,1.115,5.079,2.988Z" fill="#75b7d9" stroke="#fff" stroke-linecap="round" stroke-linejoin="round"/><circle r="5.587" transform="translate(102.622 22.642)" fill="#f89c62" stroke="#fff" stroke-linecap="round" stroke-linejoin="round"/><circle r="5.587" transform="translate(159.273 15.731)" fill="#f89c62" stroke="#fff" stroke-linecap="round" stroke-linejoin="round"/><circle r="5.587" transform="translate(308.83 94.519)" fill="#f89c62" stroke="#fff" stroke-linecap="round" stroke-linejoin="round"/><line x1="308.83" y1="135.366" x2="199.499" y2="107.511" fill="none" stroke="#2e89b2" stroke-linecap="round" stroke-linejoin="round" stroke-dasharray="3,3"/><circle r="5.587" transform="translate(199.319 107.723)" fill="#f25a58" stroke="#fff" stroke-linecap="round" stroke-linejoin="round"/></g><g id="evjVIsFdx6Y51_tr" transform="translate(233.613441,69.737005) rotate(0)"><path d="M229.125,50.495l-.421,4.392c-.055.571-.526,1.223-1.057,1.45l-1.195.596c-.497.282-1.305.275-1.794-.021l-3.772-2.29c-.489-.304-1.217-.209-1.628.188l-2.467,2.846c-.346.46-.328,1.194.035,1.636l2.813,3.411c.364.441.471,1.233.245,1.764c0,0-.045.082-.227.63-.179.545-.197.643-.197.643-.135.556-.697,1.128-1.255,1.257l-4.291,1.046c-.554.14-1.009.718-1.007,1.293l.265,3.753c.083.565.624,1.08,1.19,1.132l4.393.421c.571.055,1.228.537,1.45,1.064l.596,1.188c.286.5.275,1.305-.024,1.797l-2.291,3.765c-.293.493-.208,1.225.193,1.639l2.849,2.462c.461.346,1.194.329,1.64-.038l3.404-2.807c.448-.364,1.237-.474,1.764-.244c0,0,.084.034.637.219.549.182.636.204.636.204.556.128,1.124.694,1.261,1.252l1.045,4.284c.137.564.715,1.02,1.293,1.014l3.75-.269c.569-.08,1.081-.616,1.137-1.187l.424-4.396c.056-.572.53-1.22,1.054-1.446l1.198-.6c.494-.278,1.305-.276,1.794.021l3.772,2.296c.493.301,1.222.206,1.628-.195l2.467-2.846c.346-.46.329-1.194-.035-1.636l-2.814-3.411c-.359-.438-.47-1.233-.243-1.757c0,0,.037-.088.223-.633.179-.552.2-.646.2-.646.128-.556.698-1.121,1.256-1.257l4.29-1.046c.559-.136,1.01-.71,1.011-1.29l-.269-3.757c-.083-.565-.623-1.08-1.19-1.132l-4.393-.421c-.571-.056-1.22-.538-1.446-1.061l-.599-1.192c-.29-.497-.279-1.3.018-1.796l2.297-3.766c.293-.493.208-1.225-.199-1.632l-2.843-2.463c-.46-.353-1.194-.335-1.64.032l-3.407,2.803c-.442.363-1.237.481-1.761.247c0,0-.08-.03-.637-.219-.544-.179-.632-.201-.632-.201-.559-.131-1.128-.697-1.26-1.251l-1.05-4.287c-.136-.565-.718-1.016-1.286-1.014l-3.757.269c-.57.088-1.082.618-1.141,1.193Zm13.417,14.618c2.555,4.934.627,11.005-4.307,13.56-4.934,2.556-11.004.628-13.56-4.306s-.628-11.004,4.306-13.56s11.006-.628,13.561,4.306Z" transform="translate(-233.613441,-69.737005)" fill="#fff"/></g><g transform="translate(.000001 0)"><circle r="15.043" transform="matrix(1.14 0 0 1.14 308.404001 65.068)" fill="#f25a58"/><g><circle r="6.945" transform="translate(310.951 62.522)" fill="none" stroke="#fff" stroke-linecap="round" stroke-linejoin="round" stroke-miterlimit="10"/><g id="evjVIsFdx6Y56_tr" transform="translate(310.951003,62.684) rotate(0)"><path d="M310.951,57.519c2.764,0,5.004,2.24,5.004,5.003" transform="translate(-310.951,-62.684)" fill="none" stroke="#fff" stroke-linecap="round" stroke-linejoin="round" stroke-miterlimit="10"/></g><line x1="306.055" y1="67.418" x2="298.914" y2="74.559" fill="none" stroke="#fff" stroke-linecap="round" stroke-linejoin="round" stroke-miterlimit="10"/></g></g><g><circle r="15.043" transform="matrix(1.136 0 0 1.136 67.131999 129.435999)" fill="#f25a58"/><g id="evjVIsFdx6Y60"><path d="M61.314,122.447h-1c-.275,0-.5.225-.5.5v15c0,.275.225.5.5.5h13c.275,0,.5-.225.5-.5v-15c0-.275-.225-.5-.5-.5h-1" fill="none" stroke="#fff" stroke-linecap="round" stroke-linejoin="round" stroke-miterlimit="10"/><path d="M66.314,119.447c-.275,0-.555.219-.621.485l-.258,1.029c-.066.267-.346.485-.621.485h-1c-.275,0-.555.219-.621.485l-.258,1.029c-.066.267.104.485.379.485h7c.275,0,.445-.219.379-.485l-.258-1.029c-.066-.267-.346-.485-.621-.485h-1c-.275,0-.555-.219-.621-.485l-.258-1.029c-.066-.267-.346-.485-.621-.485h-1Z" fill="none" stroke="#fff" stroke-linecap="round" stroke-linejoin="round" stroke-miterlimit="10"/><line x1="63.314" y1="126.447" x2="70.314" y2="126.447" fill="none" stroke="#fff" stroke-linecap="round" stroke-linejoin="round" stroke-miterlimit="10"/><line x1="63.314" y1="128.447" x2="70.314" y2="128.447" fill="none" stroke="#fff" stroke-linecap="round" stroke-linejoin="round" stroke-miterlimit="10"/><line x1="63.314" y1="130.447" x2="70.314" y2="130.447" fill="none" stroke="#fff" stroke-linecap="round" stroke-linejoin="round" stroke-miterlimit="10"/><line x1="63.314" y1="132.447" x2="70.314" y2="132.447" fill="none" stroke="#fff" stroke-linecap="round" stroke-linejoin="round" stroke-miterlimit="10"/><line x1="63.314" y1="134.447" x2="70.314" y2="134.447" fill="none" stroke="#fff" stroke-linecap="round" stroke-linejoin="round" stroke-miterlimit="10"/></g></g><g id="evjVIsFdx6Y68_ts" transform="translate(308.829987,133.936005) scale(1,1)"><g transform="translate(-308.829987,-133.936005)"><circle r="15.043" transform="translate(308.83 133.936)" fill="#f27e58"/><g><path d="M317.693,138.906l-8.277-14.545c-.323-.566-.849-.566-1.172,0l-8.277,14.545c-.322.566-.054,1.03.596,1.03h16.536c.649,0,.917-.464.594-1.03Z" fill="none" stroke="#fff" stroke-linecap="round" stroke-linejoin="round" stroke-miterlimit="10"/><line x1="308.83" y1="127.588" x2="308.83" y2="135.366" fill="none" stroke="#fff" stroke-linecap="round" stroke-linejoin="round" stroke-miterlimit="10"/><circle r="0.611" transform="translate(308.83 137.234)" fill="none" stroke="#fff" stroke-linecap="round" stroke-linejoin="round" stroke-miterlimit="10"/></g></g></g><g><g><circle r="15.924" transform="translate(228.894 213.868)" fill="#043573"/><path d="M192.154,209.333c13.688,0,83.884-15.093,83.884,38.146c0,0-9.521,35.472-27.628,35.472-50.766,0-51.998-48.58-55.766-48.58-6.384-.001-.49-25.038-.49-25.038Z" fill="#abe4ff"/><path d="M197.644,219.358c13.688,0,86.236-15.094,86.236,38.146c0,0-17.364,27.627-35.471,27.627-50.766,0-50.766-40.736-50.766-40.736v-25.037Z" fill="#0668a4"/><circle r="35.471" transform="translate(248.41 257.503)" fill="#043573"/><circle r="27.482" transform="translate(248.41 257.503)" fill="#fff"/><circle r="13.901" transform="translate(248.41 257.503)" fill="#f25a58"/><circle r="7.312" transform="translate(248.41 257.503)" fill="#002636"/><path d="M248.41,275.984v3.723c12.263,0,22.204-9.94,22.204-22.203h-3.724c0,10.206-8.273,18.48-18.48,18.48Z" fill="#8cddff"/><path d="M248.41,245.351v-10.051c-12.263,0-22.203,9.94-22.203,22.203h10.051c-.001-6.711,5.441-12.152,12.152-12.152Z" fill="#8cddff"/></g><g><circle r="15.924" transform="translate(155.328 213.868)" fill="#043573"/><path d="M192.068,209.333c-13.688,0-83.883-15.093-83.883,38.146c0,0,9.521,35.472,27.627,35.472c50.766,0,51.998-48.58,55.766-48.58c6.384-.001.49-25.038.49-25.038Z" fill="#abe4ff"/><path d="M186.578,219.358c-13.688,0-86.237-15.094-86.237,38.146c0,0,17.364,27.627,35.471,27.627c50.766,0,50.766-40.736,50.766-40.736v-25.037Z" fill="#0668a4"/><circle r="35.471" transform="translate(135.812 257.503)" fill="#043573"/><circle r="27.482" transform="translate(135.812 257.503)" fill="#fff"/><g><circle r="13.901" transform="translate(135.812 257.503)" fill="#f25a58"/><circle r="7.313" transform="translate(135.812 257.503)" fill="#002636"/></g><path d="M135.812,275.984v3.723c12.263,0,22.204-9.94,22.204-22.203h-3.723c0,10.206-8.274,18.48-18.481,18.48Z" fill="#8cddff"/><path d="M135.812,245.351v-10.051c-12.263,0-22.204,9.94-22.204,22.203h10.051c.001-6.711,5.442-12.152,12.153-12.152Z" fill="#8cddff"/></g></g></svg>
